<?xml version="1.0" encoding="UTF-8" standalone="no"?>
<svg
   xmlns:dc="http://purl.org/dc/elements/1.1/"
   xmlns:cc="http://creativecommons.org/ns#"
   xmlns:rdf="http://www.w3.org/1999/02/22-rdf-syntax-ns#"
   xmlns:svg="http://www.w3.org/2000/svg"
   xmlns="http://www.w3.org/2000/svg"
   id="svg3743"
   version="1.1"
   xml:space="preserve"
   width="172.90988"
   height="198.42838"
   viewBox="0 0 172.90988 198.42838"><metadata
     id="metadata3749"><rdf:RDF><cc:Work
         rdf:about=""><dc:format>image/svg+xml</dc:format><dc:type
           rdf:resource="http://purl.org/dc/dcmitype/StillImage" /><dc:title></dc:title></cc:Work></rdf:RDF></metadata><defs
     id="defs3747"><clipPath
       clipPathUnits="userSpaceOnUse"
       id="clipPath3757"><path
         d="m 0,612.288 858.897,0 L 858.897,0 0,0 0,612.288 Z"
         id="path3759" /></clipPath></defs><g
     id="g3751"
     transform="matrix(1.25,0,0,-1.25,-450.03287,623.65925)"><g
       id="g3753"><g
         id="g3755"
         clip-path="url(#clipPath3757)"><g
           id="g3761"
           transform="translate(395.292,428.0601)"><path
             d="m 0,0 c 0,1.18 -0.953,2.129 -2.127,2.129 -1.174,0 -2.127,-0.953 -2.127,-2.129 0,-1.176 0.953,-2.123 2.127,-2.123 C -0.953,-2.123 0,-1.176 0,0"
             style="fill:#231916;fill-opacity:1;fill-rule:nonzero;stroke:none"
             id="path3763" /></g><g
           id="g3765"
           transform="translate(389.2178,428.0581)"><path
             d="m 0,0 c 0,1.18 -0.953,2.129 -2.127,2.129 -1.174,0 -2.127,-0.953 -2.127,-2.129 0,-1.176 0.953,-2.123 2.127,-2.123 C -0.953,-2.123 0,-1.176 0,0"
             style="fill:#231916;fill-opacity:1;fill-rule:nonzero;stroke:none"
             id="path3767" /></g><g
           id="g3769"
           transform="translate(395.292,428.0601)"><path
             d="m 0,0 c 0,1.18 -0.953,2.129 -2.127,2.129 -1.174,0 -2.127,-0.953 -2.127,-2.129 0,-1.176 0.953,-2.123 2.127,-2.123 C -0.953,-2.123 0,-1.176 0,0"
             style="fill:#231916;fill-opacity:1;fill-rule:nonzero;stroke:none"
             id="path3771" /></g><g
           id="g3773"
           transform="translate(389.2178,428.0581)"><path
             d="m 0,0 c 0,1.18 -0.953,2.129 -2.127,2.129 -1.174,0 -2.127,-0.953 -2.127,-2.129 0,-1.176 0.953,-2.123 2.127,-2.123 C -0.953,-2.123 0,-1.176 0,0"
             style="fill:#231916;fill-opacity:1;fill-rule:nonzero;stroke:none"
             id="path3775" /></g><g
           id="g3777"
           transform="translate(390.1279,464.9077)"><path
             d="m 0,0 -3.273,-5.67 6.546,0 L 0,0 Z"
             style="fill:#231916;fill-opacity:1;fill-rule:nonzero;stroke:none"
             id="path3779" /></g><g
           id="g3781"
           transform="translate(380.3076,447.8999)"><path
             d="M 0,0 19.641,0 16.367,5.67 3.273,5.67 0,0 Z"
             style="fill:#231916;fill-opacity:1;fill-rule:nonzero;stroke:none"
             id="path3783" /></g><g
           id="g3785"
           transform="translate(386.8545,459.2378)"><path
             d="m 0,0 -3.273,-5.668 13.093,0 L 6.547,0 0,0 Z"
             style="fill:#fed949;fill-opacity:1;fill-rule:nonzero;stroke:none"
             id="path3787" /></g><g
           id="g3789"
           transform="translate(390.1279,430.8921)"><path
             d="m 0,0 6.547,11.34 -13.094,0 L 0,0 Z"
             style="fill:#231916;fill-opacity:1;fill-rule:nonzero;stroke:none"
             id="path3791" /></g><g
           id="g3793"
           transform="translate(380.3076,447.8999)"><path
             d="m 0,0 3.273,-5.668 13.094,0 L 19.641,0 0,0 Z"
             style="fill:#fed949;fill-opacity:1;fill-rule:nonzero;stroke:none"
             id="path3795" /></g><g
           id="g3797"
           transform="translate(380.3076,447.8999)"><path
             d="m 0,0 -19.641,0 9.821,-17.008 19.64,0 L 0,0 Z"
             style="fill:#dcdddd;fill-opacity:1;fill-rule:nonzero;stroke:none"
             id="path3799" /></g><g
           id="g3801"
           transform="translate(399.9482,447.8999)"><path
             d="m 0,0 -9.82,-17.008 19.64,0 L 19.641,0 0,0 Z"
             style="fill:#dcdddd;fill-opacity:1;fill-rule:nonzero;stroke:none"
             id="path3803" /></g><g
           id="g3805"
           transform="translate(414.8018,399.9312)"><path
             d="m 0,0 c -1.021,0.59 -2.32,0.238 -2.908,-0.777 -0.586,-1.018 -0.238,-2.319 0.781,-2.907 1.02,-0.587 2.316,-0.238 2.902,0.782 C 1.361,-1.887 1.018,-0.588 0,0"
             style="fill:#231916;fill-opacity:1;fill-rule:nonzero;stroke:none"
             id="path3807" /></g><g
           id="g3809"
           transform="translate(411.7666,394.6694)"><path
             d="m 0,0 c -1.021,0.59 -2.32,0.238 -2.908,-0.777 -0.586,-1.016 -0.238,-2.321 0.781,-2.907 1.02,-0.589 2.316,-0.236 2.902,0.78 C 1.361,-1.887 1.018,-0.59 0,0"
             style="fill:#231916;fill-opacity:1;fill-rule:nonzero;stroke:none"
             id="path3811" /></g><g
           id="g3813"
           transform="translate(414.8018,399.9312)"><path
             d="m 0,0 c -1.021,0.59 -2.32,0.238 -2.908,-0.777 -0.586,-1.018 -0.238,-2.319 0.781,-2.907 1.02,-0.587 2.316,-0.238 2.902,0.782 C 1.361,-1.887 1.018,-0.588 0,0"
             style="fill:#231916;fill-opacity:1;fill-rule:nonzero;stroke:none"
             id="path3815" /></g><g
           id="g3817"
           transform="translate(411.7666,394.6694)"><path
             d="m 0,0 c -1.021,0.59 -2.32,0.238 -2.908,-0.777 -0.586,-1.016 -0.238,-2.321 0.781,-2.907 1.02,-0.589 2.316,-0.236 2.902,0.78 C 1.361,-1.887 1.018,-0.59 0,0"
             style="fill:#231916;fill-opacity:1;fill-rule:nonzero;stroke:none"
             id="path3819" /></g><g
           id="g3821"
           transform="translate(380.3076,413.8823)"><path
             d="M 0,0 3.273,-5.67 6.547,-0.002 0,0 Z"
             style="fill:#231916;fill-opacity:1;fill-rule:nonzero;stroke:none"
             id="path3823" /></g><g
           id="g3825"
           transform="translate(390.1279,396.8745)"><path
             d="M 0,0 9.82,17.008 3.273,17.01 -3.273,5.67 0,0 Z"
             style="fill:#231916;fill-opacity:1;fill-rule:nonzero;stroke:none"
             id="path3827" /></g><g
           id="g3829"
           transform="translate(383.5811,408.2124)"><path
             d="M 0,0 3.273,-5.668 9.82,5.672 3.273,5.668 0,0 Z"
             style="fill:#fed949;fill-opacity:1;fill-rule:nonzero;stroke:none"
             id="path3831" /></g><g
           id="g3833"
           transform="translate(409.7686,396.8745)"><path
             d="M 0,0 -6.549,11.34 -13.096,0 0,0 Z"
             style="fill:#231916;fill-opacity:1;fill-rule:nonzero;stroke:none"
             id="path3835" /></g><g
           id="g3837"
           transform="translate(390.1279,396.8745)"><path
             d="M 0,0 6.545,0 13.092,11.34 9.82,17.008 0,0 Z"
             style="fill:#fed949;fill-opacity:1;fill-rule:nonzero;stroke:none"
             id="path3839" /></g><g
           id="g3841"
           transform="translate(390.1279,396.8745)"><path
             d="m 0,0 -9.82,-17.01 19.64,0 L 19.641,0 0,0 Z"
             style="fill:#dcdddd;fill-opacity:1;fill-rule:nonzero;stroke:none"
             id="path3843" /></g><g
           id="g3845"
           transform="translate(399.9482,413.8823)"><path
             d="M 0,0 9.82,-17.008 19.641,0.002 9.82,17.01 0,0 Z"
             style="fill:#dcdddd;fill-opacity:1;fill-rule:nonzero;stroke:none"
             id="path3847" /></g><g
           id="g3849"
           transform="translate(448.917,402.7632)"><path
             d="m 0,0 c -1.021,-0.59 -1.367,-1.891 -0.781,-2.908 0.59,-1.018 1.888,-1.365 2.908,-0.778 1.018,0.588 1.365,1.889 0.775,2.905 C 2.314,0.234 1.018,0.586 0,0"
             style="fill:#231916;fill-opacity:1;fill-rule:nonzero;stroke:none"
             id="path3851" /></g><g
           id="g3853"
           transform="translate(451.9561,397.5034)"><path
             d="m 0,0 c -1.021,-0.59 -1.367,-1.891 -0.781,-2.908 0.586,-1.016 1.89,-1.365 2.908,-0.776 1.021,0.588 1.361,1.889 0.775,2.905 C 2.314,0.234 1.02,0.586 0,0"
             style="fill:#231916;fill-opacity:1;fill-rule:nonzero;stroke:none"
             id="path3855" /></g><g
           id="g3857"
           transform="translate(448.917,402.7632)"><path
             d="m 0,0 c -1.021,-0.59 -1.367,-1.891 -0.781,-2.908 0.59,-1.018 1.888,-1.365 2.908,-0.778 1.018,0.588 1.365,1.889 0.775,2.905 C 2.314,0.234 1.018,0.586 0,0"
             style="fill:#231916;fill-opacity:1;fill-rule:nonzero;stroke:none"
             id="path3859" /></g><g
           id="g3861"
           transform="translate(451.9561,397.5034)"><path
             d="m 0,0 c -1.021,-0.59 -1.367,-1.891 -0.781,-2.908 0.586,-1.016 1.89,-1.365 2.908,-0.776 1.021,0.588 1.361,1.889 0.775,2.905 C 2.314,0.234 1.02,0.586 0,0"
             style="fill:#231916;fill-opacity:1;fill-rule:nonzero;stroke:none"
             id="path3863" /></g><g
           id="g3865"
           transform="translate(419.5889,379.8647)"><path
             d="M 0,0 6.547,0 3.273,5.67 0,0 Z"
             style="fill:#231916;fill-opacity:1;fill-rule:nonzero;stroke:none"
             id="path3867" /></g><g
           id="g3869"
           transform="translate(439.2275,379.8647)"><path
             d="M 0,0 -9.818,17.008 -13.096,11.34 -6.547,0.002 0,0 Z"
             style="fill:#231916;fill-opacity:1;fill-rule:nonzero;stroke:none"
             id="path3871" /></g><g
           id="g3873"
           transform="translate(426.1357,379.8647)"><path
             d="M 0,0 6.545,0.002 -0.004,11.34 -3.273,5.67 0,0 Z"
             style="fill:#fed949;fill-opacity:1;fill-rule:nonzero;stroke:none"
             id="path3875" /></g><g
           id="g3877"
           transform="translate(449.0479,396.8765)"><path
             d="M 0,0 -13.096,-0.004 -6.549,-11.344 0,0 Z"
             style="fill:#231916;fill-opacity:1;fill-rule:nonzero;stroke:none"
             id="path3879" /></g><g
           id="g3881"
           transform="translate(439.2275,379.8647)"><path
             d="m 0,0 3.271,5.668 -6.546,11.34 -6.543,0 L 0,0 Z"
             style="fill:#fed949;fill-opacity:1;fill-rule:nonzero;stroke:none"
             id="path3883" /></g><g
           id="g3885"
           transform="translate(439.2275,379.8647)"><path
             d="M 0,0 9.82,-17.008 19.641,0 9.82,17.012 0,0 Z"
             style="fill:#dcdddd;fill-opacity:1;fill-rule:nonzero;stroke:none"
             id="path3887" /></g><g
           id="g3889"
           transform="translate(429.4092,396.8726)"><path
             d="M 0,0 19.639,0.004 9.816,17.012 -9.82,17.012 0,0 Z"
             style="fill:#dcdddd;fill-opacity:1;fill-rule:nonzero;stroke:none"
             id="path3891" /></g><g
           id="g3893"
           transform="translate(463.5225,433.7241)"><path
             d="m 0,0 c 0,-1.18 0.953,-2.129 2.127,-2.129 1.174,0 2.127,0.953 2.127,2.129 0,1.176 -0.953,2.123 -2.127,2.123 C 0.953,2.123 0,1.176 0,0"
             style="fill:#231916;fill-opacity:1;fill-rule:nonzero;stroke:none"
             id="path3895" /></g><g
           id="g3897"
           transform="translate(469.5967,433.7261)"><path
             d="m 0,0 c 0,-1.18 0.953,-2.129 2.127,-2.129 1.174,0 2.127,0.953 2.127,2.129 0,1.176 -0.953,2.123 -2.127,2.123 C 0.953,2.123 0,1.176 0,0"
             style="fill:#231916;fill-opacity:1;fill-rule:nonzero;stroke:none"
             id="path3899" /></g><g
           id="g3901"
           transform="translate(463.5225,433.7241)"><path
             d="m 0,0 c 0,-1.18 0.953,-2.129 2.127,-2.129 1.174,0 2.127,0.953 2.127,2.129 0,1.176 -0.953,2.123 -2.127,2.123 C 0.953,2.123 0,1.176 0,0"
             style="fill:#231916;fill-opacity:1;fill-rule:nonzero;stroke:none"
             id="path3903" /></g><g
           id="g3905"
           transform="translate(469.5967,433.7261)"><path
             d="m 0,0 c 0,-1.18 0.953,-2.129 2.127,-2.129 1.174,0 2.127,0.953 2.127,2.129 0,1.176 -0.953,2.123 -2.127,2.123 C 0.953,2.123 0,1.176 0,0"
             style="fill:#231916;fill-opacity:1;fill-rule:nonzero;stroke:none"
             id="path3907" /></g><g
           id="g3909"
           transform="translate(468.6865,396.8765)"><path
             d="m 0,0 3.273,5.67 -6.546,0 L 0,0 Z"
             style="fill:#231916;fill-opacity:1;fill-rule:nonzero;stroke:none"
             id="path3911" /></g><g
           id="g3913"
           transform="translate(478.5068,413.8843)"><path
             d="m 0,0 -19.641,0 3.274,-5.67 13.094,0 L 0,0 Z"
             style="fill:#231916;fill-opacity:1;fill-rule:nonzero;stroke:none"
             id="path3915" /></g><g
           id="g3917"
           transform="translate(471.96,402.5464)"><path
             d="M 0,0 3.273,5.668 -9.82,5.668 -6.547,0 0,0 Z"
             style="fill:#fed949;fill-opacity:1;fill-rule:nonzero;stroke:none"
             id="path3919" /></g><g
           id="g3921"
           transform="translate(468.6865,430.8921)"><path
             d="m 0,0 -6.547,-11.34 13.094,0 L 0,0 Z"
             style="fill:#231916;fill-opacity:1;fill-rule:nonzero;stroke:none"
             id="path3923" /></g><g
           id="g3925"
           transform="translate(478.5068,413.8843)"><path
             d="m 0,0 -3.273,5.668 -13.094,0 L -19.641,0 0,0 Z"
             style="fill:#fed949;fill-opacity:1;fill-rule:nonzero;stroke:none"
             id="path3927" /></g><g
           id="g3929"
           transform="translate(478.5068,413.8843)"><path
             d="M 0,0 19.641,0 9.82,17.008 -9.82,17.008 0,0 Z"
             style="fill:#dcdddd;fill-opacity:1;fill-rule:nonzero;stroke:none"
             id="path3931" /></g><g
           id="g3933"
           transform="translate(458.8662,413.8843)"><path
             d="m 0,0 9.82,17.008 -19.64,0 L -19.641,0 0,0 Z"
             style="fill:#dcdddd;fill-opacity:1;fill-rule:nonzero;stroke:none"
             id="path3935" /></g><g
           id="g3937"
           transform="translate(444.0127,461.853)"><path
             d="M 0,0 C 1.021,-0.59 2.32,-0.238 2.908,0.777 3.494,1.795 3.146,3.096 2.127,3.684 1.107,4.271 -0.189,3.922 -0.775,2.902 -1.361,1.887 -1.018,0.588 0,0"
             style="fill:#231916;fill-opacity:1;fill-rule:nonzero;stroke:none"
             id="path3939" /></g><g
           id="g3941"
           transform="translate(447.0479,467.1147)"><path
             d="M 0,0 C 1.021,-0.59 2.32,-0.238 2.908,0.777 3.494,1.793 3.146,3.098 2.127,3.684 1.107,4.273 -0.189,3.92 -0.775,2.904 -1.361,1.887 -1.018,0.59 0,0"
             style="fill:#231916;fill-opacity:1;fill-rule:nonzero;stroke:none"
             id="path3943" /></g><g
           id="g3945"
           transform="translate(444.0127,461.853)"><path
             d="M 0,0 C 1.021,-0.59 2.32,-0.238 2.908,0.777 3.494,1.795 3.146,3.096 2.127,3.684 1.107,4.271 -0.189,3.922 -0.775,2.902 -1.361,1.887 -1.018,0.588 0,0"
             style="fill:#231916;fill-opacity:1;fill-rule:nonzero;stroke:none"
             id="path3947" /></g><g
           id="g3949"
           transform="translate(447.0479,467.1147)"><path
             d="M 0,0 C 1.021,-0.59 2.32,-0.238 2.908,0.777 3.494,1.793 3.146,3.098 2.127,3.684 1.107,4.273 -0.189,3.92 -0.775,2.904 -1.361,1.887 -1.018,0.59 0,0"
             style="fill:#231916;fill-opacity:1;fill-rule:nonzero;stroke:none"
             id="path3951" /></g><g
           id="g3953"
           transform="translate(478.5068,447.9019)"><path
             d="M 0,0 -3.273,5.67 -6.547,0.002 0,0 Z"
             style="fill:#231916;fill-opacity:1;fill-rule:nonzero;stroke:none"
             id="path3955" /></g><g
           id="g3957"
           transform="translate(468.6865,464.9097)"><path
             d="M 0,0 -9.82,-17.008 -3.273,-17.01 3.273,-5.67 0,0 Z"
             style="fill:#231916;fill-opacity:1;fill-rule:nonzero;stroke:none"
             id="path3959" /></g><g
           id="g3961"
           transform="translate(475.2334,453.5718)"><path
             d="M 0,0 -3.273,5.668 -9.82,-5.672 -3.273,-5.668 0,0 Z"
             style="fill:#fed949;fill-opacity:1;fill-rule:nonzero;stroke:none"
             id="path3963" /></g><g
           id="g3965"
           transform="translate(449.0459,464.9097)"><path
             d="M 0,0 6.549,-11.34 13.096,0 0,0 Z"
             style="fill:#231916;fill-opacity:1;fill-rule:nonzero;stroke:none"
             id="path3967" /></g><g
           id="g3969"
           transform="translate(468.6865,464.9097)"><path
             d="M 0,0 -6.545,0 -13.092,-11.34 -9.82,-17.008 0,0 Z"
             style="fill:#fed949;fill-opacity:1;fill-rule:nonzero;stroke:none"
             id="path3971" /></g><g
           id="g3973"
           transform="translate(468.6865,464.9097)"><path
             d="m 0,0 9.82,17.01 -19.64,0 L -19.641,0 0,0 Z"
             style="fill:#dcdddd;fill-opacity:1;fill-rule:nonzero;stroke:none"
             id="path3975" /></g><g
           id="g3977"
           transform="translate(458.8662,447.9019)"><path
             d="M 0,0 -9.82,17.008 -19.641,-0.002 -9.82,-17.01 0,0 Z"
             style="fill:#dcdddd;fill-opacity:1;fill-rule:nonzero;stroke:none"
             id="path3979" /></g><g
           id="g3981"
           transform="translate(409.8975,459.021)"><path
             d="M 0,0 C 1.021,0.59 1.367,1.891 0.781,2.908 0.191,3.926 -1.107,4.273 -2.127,3.686 -3.145,3.098 -3.492,1.797 -2.902,0.781 -2.314,-0.234 -1.018,-0.586 0,0"
             style="fill:#231916;fill-opacity:1;fill-rule:nonzero;stroke:none"
             id="path3983" /></g><g
           id="g3985"
           transform="translate(406.8584,464.2808)"><path
             d="M 0,0 C 1.021,0.59 1.367,1.891 0.781,2.908 0.195,3.924 -1.109,4.273 -2.127,3.684 -3.148,3.096 -3.488,1.795 -2.902,0.779 -2.314,-0.234 -1.02,-0.586 0,0"
             style="fill:#231916;fill-opacity:1;fill-rule:nonzero;stroke:none"
             id="path3987" /></g><g
           id="g3989"
           transform="translate(409.8975,459.021)"><path
             d="M 0,0 C 1.021,0.59 1.367,1.891 0.781,2.908 0.191,3.926 -1.107,4.273 -2.127,3.686 -3.145,3.098 -3.492,1.797 -2.902,0.781 -2.314,-0.234 -1.018,-0.586 0,0"
             style="fill:#231916;fill-opacity:1;fill-rule:nonzero;stroke:none"
             id="path3991" /></g><g
           id="g3993"
           transform="translate(406.8584,464.2808)"><path
             d="M 0,0 C 1.021,0.59 1.367,1.891 0.781,2.908 0.195,3.924 -1.109,4.273 -2.127,3.684 -3.148,3.096 -3.488,1.795 -2.902,0.779 -2.314,-0.234 -1.02,-0.586 0,0"
             style="fill:#231916;fill-opacity:1;fill-rule:nonzero;stroke:none"
             id="path3995" /></g><g
           id="g3997"
           transform="translate(439.2256,481.9194)"><path
             d="M 0,0 -6.547,0 -3.273,-5.67 0,0 Z"
             style="fill:#231916;fill-opacity:1;fill-rule:nonzero;stroke:none"
             id="path3999" /></g><g
           id="g4001"
           transform="translate(419.5869,481.9194)"><path
             d="M 0,0 9.818,-17.008 13.096,-11.34 6.547,-0.002 0,0 Z"
             style="fill:#231916;fill-opacity:1;fill-rule:nonzero;stroke:none"
             id="path4003" /></g><g
           id="g4005"
           transform="translate(432.6787,481.9194)"><path
             d="M 0,0 -6.545,-0.002 0.004,-11.34 3.273,-5.67 0,0 Z"
             style="fill:#fed949;fill-opacity:1;fill-rule:nonzero;stroke:none"
             id="path4007" /></g><g
           id="g4009"
           transform="translate(409.7666,464.9077)"><path
             d="M 0,0 13.096,0.004 6.549,11.344 0,0 Z"
             style="fill:#231916;fill-opacity:1;fill-rule:nonzero;stroke:none"
             id="path4011" /></g><g
           id="g4013"
           transform="translate(419.5869,481.9194)"><path
             d="m 0,0 -3.271,-5.668 6.546,-11.34 6.543,0 L 0,0 Z"
             style="fill:#fed949;fill-opacity:1;fill-rule:nonzero;stroke:none"
             id="path4015" /></g><g
           id="g4017"
           transform="translate(419.5869,481.9194)"><path
             d="M 0,0 -9.82,17.008 -19.641,0 -9.82,-17.012 0,0 Z"
             style="fill:#dcdddd;fill-opacity:1;fill-rule:nonzero;stroke:none"
             id="path4019" /></g><g
           id="g4021"
           transform="translate(429.4053,464.9116)"><path
             d="m 0,0 -19.639,-0.004 9.823,-17.008 19.636,0 L 0,0 Z"
             style="fill:#dcdddd;fill-opacity:1;fill-rule:nonzero;stroke:none"
             id="path4023" /></g><g
           id="g4025"
           transform="translate(422.8584,419.5542)"><path
             d="M 0,0 -6.545,11.338 0,22.676 l 13.094,0 L 19.639,11.338 13.094,0 0,0 Z"
             style="fill:#fed949;fill-opacity:1;fill-rule:nonzero;stroke:none"
             id="path4027" /></g><g
           id="g4029"
           transform="translate(496.3662,366.0308)"><path
             d="m 0,0 c -1.063,0 -1.957,-0.896 -1.957,-1.955 l 0,-21.936 c 0,-1.06 0.894,-1.955 1.957,-1.955 1.098,0 1.988,0.877 1.988,1.955 l 0,21.936 C 1.988,-0.877 1.098,0 0,0"
             style="fill:#116ab1;fill-opacity:1;fill-rule:nonzero;stroke:none"
             id="path4031" /></g><g
           id="g4033"
           transform="translate(414.9834,352.0015)"><path
             d="M 0,0 C 0.871,1.879 2.654,3.053 4.725,3.053 6.746,3.053 8.531,1.852 9.367,0 L 0,0 Z m 13.23,-3.322 c 0.379,0.383 0.583,0.908 0.579,1.556 -0.387,4.977 -4.293,8.731 -9.084,8.731 -5.049,0 -9.157,-4.227 -9.157,-9.426 0,-5.16 4.108,-9.355 9.157,-9.355 3.103,0 5.963,1.601 7.65,4.3 0.531,0.905 0.27,2.032 -0.672,2.715 -0.299,0.176 -0.644,0.27 -0.994,0.27 -0.695,0 -1.314,-0.352 -1.656,-0.938 -0.901,-1.504 -2.561,-2.437 -4.328,-2.437 -2.407,0 -4.446,1.66 -5.065,4.027 l 12.195,0 c 0.528,0 1.016,0.197 1.375,0.557"
             style="fill:#116ab1;fill-opacity:1;fill-rule:nonzero;stroke:none"
             id="path4035" /></g><g
           id="g4037"
           transform="translate(452.7334,358.9312)"><path
             d="M 0,0 C -2.246,0 -4.406,-0.984 -5.91,-2.668 -7.395,-0.984 -9.551,0 -11.807,0 -13.254,0 -14.676,-0.402 -15.898,-1.148 -16.195,-0.465 -16.879,0 -17.695,0 c -1.043,0 -1.922,-0.879 -1.922,-1.922 l 0,-14.902 c 0,-0.133 0.008,-0.373 0.054,-0.528 0.254,-0.765 0.922,-1.312 1.766,-1.394 l 0.203,0 c 0.008,0 0.114,0.008 0.258,0.035 0.17,0.02 0.523,0.109 0.691,0.273 0.571,0.344 0.907,0.95 0.907,1.614 l 0,8.984 c 0,2.184 1.761,3.963 3.931,3.963 2.166,0 3.93,-1.779 3.93,-3.963 l 0.033,-9.254 c 0,-0.238 0.074,-0.47 0.125,-0.486 0.086,-0.279 0.272,-0.475 0.422,-0.604 0.141,-0.152 0.426,-0.312 0.602,-0.394 0.218,-0.113 0.468,-0.168 0.777,-0.168 0.314,0 0.625,0.08 0.994,0.262 0.467,0.281 0.742,0.636 0.893,1.13 0.047,0.143 0.101,0.346 0.101,0.53 l 0,8.984 c 0,2.184 1.762,3.963 3.93,3.963 2.17,0 3.912,-1.748 3.965,-3.963 l 0,-8.984 c 0,-1.063 0.863,-1.922 1.924,-1.922 1.08,0 1.955,0.859 1.955,1.922 l 0,8.984 C 7.844,-3.516 4.326,0 0,0"
             style="fill:#116ab1;fill-opacity:1;fill-rule:nonzero;stroke:none"
             id="path4039" /></g><g
           id="g4041"
           transform="translate(472.1553,344.0952)"><path
             d="m 0,0 c -2.781,0 -5.043,2.461 -5.043,5.48 0,3.04 2.262,5.512 5.043,5.512 2.777,0 5.041,-2.472 5.041,-5.512 C 5.041,2.461 2.777,0 0,0 m 6.996,14.871 c -0.992,0 -1.793,-0.703 -1.933,-1.652 -1.489,1.074 -3.247,1.652 -5.063,1.652 -4.938,0 -8.953,-4.211 -8.953,-9.391 0,-5.179 4.015,-9.39 8.953,-9.39 1.809,0 3.57,0.586 5.063,1.672 0.14,-0.934 0.97,-1.672 1.933,-1.672 1.063,0 1.957,0.894 1.957,1.955 l 0,14.869 c 0,1.098 -0.857,1.957 -1.957,1.957"
             style="fill:#116ab1;fill-opacity:1;fill-rule:nonzero;stroke:none"
             id="path4043" /></g><g
           id="g4045"
           transform="translate(378.8623,364.0757)"><path
             d="m 0,0 0,-21.936 c 0,-1.078 -0.891,-1.955 -1.988,-1.955 -1.063,0 -1.957,0.895 -1.957,1.955 l 0,9.01 -10.946,0 0,-9.01 c 0,-1.078 -0.89,-1.955 -1.992,-1.955 -1.058,0 -1.953,0.895 -1.953,1.955 l 0,21.936 c 0,1.059 0.895,1.955 1.953,1.955 1.102,0 1.992,-0.877 1.992,-1.955 l 0,-9.012 10.946,0 0,9.012 c 0,1.059 0.894,1.955 1.957,1.955 C -0.891,1.955 0,1.078 0,0"
             style="fill:#116ab1;fill-opacity:1;fill-rule:nonzero;stroke:none"
             id="path4047" /></g><g
           id="g4049"
           transform="translate(386.2842,358.9663)"><path
             d="m 0,0 c -1.098,0 -1.959,-0.859 -1.959,-1.957 l 0,-14.869 c 0,-1.061 0.896,-1.955 1.959,-1.955 1.096,0 1.986,0.877 1.986,1.955 l 0,14.869 C 1.986,-0.859 1.113,0 0,0"
             style="fill:#116ab1;fill-opacity:1;fill-rule:nonzero;stroke:none"
             id="path4051" /></g><g
           id="g4053"
           transform="translate(386.2998,366.0308)"><path
             d="m 0,0 c -1.092,0 -1.975,-0.881 -1.975,-1.971 0,-1.09 0.883,-1.972 1.975,-1.972 1.09,0 1.971,0.882 1.971,1.972 C 1.971,-0.881 1.09,0 0,0"
             style="fill:#116ab1;fill-opacity:1;fill-rule:nonzero;stroke:none"
             id="path4055" /></g><g
           id="g4057"
           transform="translate(407.499,358.6772)"><path
             d="m 0,0 c -0.232,0.098 -0.482,0.145 -0.742,0.145 -0.817,0 -1.578,-0.52 -1.801,-1.2 l -4.426,-10.48 -4.394,10.402 c -0.252,0.754 -1.004,1.278 -1.83,1.278 -0.264,0 -0.514,-0.049 -0.784,-0.161 -0.945,-0.435 -1.386,-1.57 -0.982,-2.531 l 6.182,-14.719 c 0.17,-0.429 0.441,-0.672 0.843,-0.984 0.067,-0.037 0.188,-0.102 0.379,-0.156 0.274,-0.086 0.481,-0.086 0.619,-0.086 0.213,0 0.946,0.047 1.459,0.691 0.094,0.129 0.317,0.449 0.34,0.649 L 1.02,-2.547 C 1.438,-1.555 0.98,-0.412 0,0"
             style="fill:#116ab1;fill-opacity:1;fill-rule:nonzero;stroke:none"
             id="path4059" /></g><g
           id="g4061"
           transform="translate(487.9912,366.0308)"><path
             d="m 0,0 c -1.059,0 -1.957,-0.896 -1.957,-1.955 l 0,-21.936 c 0,-1.06 0.898,-1.955 1.957,-1.955 1.098,0 1.992,0.877 1.992,1.955 l 0,21.936 C 1.992,-0.877 1.098,0 0,0"
             style="fill:#116ab1;fill-opacity:1;fill-rule:nonzero;stroke:none"
             id="path4063" /></g><g
           id="g4065"
           transform="translate(489.9834,137.3037)" /></g></g></g></svg>